<?xml version="1.0" encoding="utf-8"?>
<!-- Generator: Adobe Illustrator 28.2.0, SVG Export Plug-In . SVG Version: 6.00 Build 0)  -->
<svg version="1.1" id="Layer_1" xmlns="http://www.w3.org/2000/svg" xmlns:xlink="http://www.w3.org/1999/xlink" x="0px" y="0px"
	 viewBox="0 0 699.6 282.5" style="enable-background:new 0 0 699.6 282.5;" xml:space="preserve">
<style type="text/css">
	.st0{fill:#FFFFFF;}
	.st1{fill:url(#SVGID_1_);}
	.st2{fill:url(#SVGID_00000041274471882736071030000016649073292504769665_);}
	.st3{fill:url(#SVGID_00000004532752031217561990000012670195239197886352_);}
	.st4{fill:url(#SVGID_00000161605506620436319770000007894395740043152811_);}
	.st5{fill:url(#SVGID_00000116192960476089456070000000805115918542378682_);}
	.st6{fill:url(#SVGID_00000035490546623515848040000005556021894517133758_);}
	.st7{fill:url(#SVGID_00000002380470755648729590000008426029595028769970_);}
</style>
<g>
	<g>
		<g>
			<path class="st0" d="M25.7,270.9c-3.3,0-6-1.1-8-3.2s-3-5-3-8.4c0-3.7,1.1-6.7,3.4-9c2.2-2.3,5.1-3.5,8.5-3.5c2.2,0,4,0.3,5.4,1
				l0.6,0.2v4.9l-1.4-0.8c-1.4-0.8-2.9-1.2-4.6-1.2c-2.2,0-3.9,0.7-5.3,2.2s-2,3.4-2,6c0,2.4,0.6,4.2,1.9,5.6s2.9,2,4.9,2
				s3.7-0.4,5.1-1.3l1.4-0.9v4.7l-0.5,0.3C30.4,270.4,28.2,270.9,25.7,270.9z"/>
			<path class="st0" d="M31.7,268.7c-1.6,0.8-3.6,1.3-5.9,1.3c-3.1,0-5.5-1-7.3-2.9c-1.8-2-2.8-4.5-2.8-7.7c0-3.4,1-6.2,3.1-8.3
				s4.7-3.2,7.9-3.2c2,0,3.7,0.3,5.1,0.9v2.7c-1.5-0.9-3.2-1.3-5.1-1.3c-2.5,0-4.5,0.8-6,2.5c-1.5,1.6-2.3,3.8-2.3,6.6
				c0,2.6,0.7,4.7,2.1,6.2c1.4,1.6,3.3,2.3,5.6,2.3c2.2,0,4-0.5,5.6-1.4V268.7z"/>
			<path class="st0" d="M73.6,270.5l-2.3-6h-7.8l-2.1,6h-4.8l9-23.3h3.9l9,23.3H73.6z M69.8,260.4l-2.4-6.5l-2.4,6.5H69.8z"/>
			<path class="st0" d="M77,269.6h-2.8l-2.3-6h-9.1l-2.1,6h-2.8l8.2-21.5h2.6L77,269.6z M71.1,261.3l-3.4-9.1
				c-0.1-0.3-0.2-0.8-0.3-1.4h-0.1c-0.1,0.6-0.2,1.1-0.3,1.4l-3.3,9.1H71.1z"/>
			<polygon class="st0" points="105.4,270.5 105.4,251.4 99.2,251.4 99.2,247.2 116,247.2 116,251.4 109.8,251.4 109.8,270.5 			"/>
			<path class="st0" d="M115.1,250.4h-6.2v19.2h-2.5v-19.2h-6.2v-2.3h14.9C115.1,248.1,115.1,250.4,115.1,250.4z"/>
			<polygon class="st0" points="141.9,270.5 141.9,247.2 154.7,247.2 154.7,251.4 146.3,251.4 146.3,256.6 154,256.6 154,260.8 
				146.3,260.8 146.3,266.4 155.1,266.4 155.1,270.5 			"/>
			<path class="st0" d="M154.2,269.6h-11.4v-21.5h10.9v2.3h-8.4v7.1h7.8v2.3h-7.8v7.5h8.9V269.6z"/>
			<path class="st0" d="M194.6,270.5l-3.9-6.5c-0.3-0.5-0.6-1-0.9-1.3c-0.3-0.3-0.5-0.6-0.8-0.8c-0.2-0.2-0.5-0.3-0.7-0.4
				c-0.3-0.1-0.6-0.1-1-0.1h-1.1v9.1h-4.4v-23.3h7.3c1,0,2,0.1,2.9,0.4c0.9,0.3,1.7,0.7,2.4,1.2c0.7,0.6,1.2,1.3,1.6,2.1
				c0.4,0.8,0.6,1.8,0.6,2.9c0,0.9-0.1,1.7-0.4,2.4c-0.3,0.7-0.6,1.4-1.1,2s-1.1,1.1-1.7,1.5c-0.2,0.1-0.3,0.2-0.5,0.3
				c0.1,0.1,0.3,0.3,0.4,0.5c0.3,0.3,0.5,0.7,0.8,1c0.2,0.4,0.5,0.8,0.8,1.3l4.9,7.9h-5.2V270.5z M188.6,257.3c0.5,0,1-0.1,1.4-0.2
				s0.8-0.4,1.1-0.6c0.3-0.3,0.5-0.6,0.7-1s0.3-0.9,0.3-1.4c0-0.9-0.3-1.5-0.8-2c-0.6-0.5-1.4-0.7-2.6-0.7h-2.5v5.9H188.6z"/>
			<path class="st0" d="M198.1,269.6h-3l-3.6-6c-0.3-0.6-0.6-1-1-1.4c-0.3-0.4-0.6-0.7-0.9-1c-0.3-0.2-0.7-0.4-1-0.5
				c-0.4-0.1-0.8-0.2-1.3-0.2h-2.1v9.1h-2.5v-21.5h6.4c0.9,0,1.8,0.1,2.6,0.4c0.8,0.2,1.5,0.6,2.1,1.1s1,1.1,1.4,1.8
				c0.3,0.7,0.5,1.5,0.5,2.5c0,0.7-0.1,1.4-0.3,2.1c-0.2,0.6-0.5,1.2-1,1.7c-0.4,0.5-0.9,0.9-1.5,1.3c-0.6,0.3-1.2,0.6-2,0.8v0.1
				c0.4,0.2,0.7,0.3,0.9,0.5c0.3,0.2,0.5,0.4,0.8,0.7s0.5,0.6,0.7,1s0.5,0.8,0.8,1.2L198.1,269.6z M185.2,250.4v7.8h3.4
				c0.6,0,1.2-0.1,1.7-0.3c0.5-0.2,1-0.5,1.4-0.8c0.4-0.4,0.7-0.8,0.9-1.3c0.2-0.5,0.3-1.1,0.3-1.7c0-1.1-0.4-2-1.1-2.7
				c-0.7-0.6-1.8-1-3.2-1L185.2,250.4L185.2,250.4z"/>
			<rect x="224.5" y="247.2" class="st0" width="4.4" height="23.3"/>
			<path class="st0" d="M227.9,269.6h-2.5v-21.5h2.5V269.6z"/>
			<polygon class="st0" points="271.7,270.5 261.4,254.7 261.4,270.5 257,270.5 257,247.2 261.8,247.2 271.8,263 271.8,247.2 
				276.2,247.2 276.2,270.5 			"/>
			<path class="st0" d="M275.3,269.6h-3.1l-11-17.1c-0.3-0.4-0.5-0.9-0.7-1.3h-0.1c0.1,0.5,0.1,1.4,0.1,2.9v15.5H258v-21.5h3.3
				L272,265c0.4,0.7,0.7,1.2,0.9,1.4h0.1c-0.1-0.6-0.1-1.7-0.1-3.2v-15.1h2.5v21.5H275.3z"/>
			<path class="st0" d="M314.1,270.9c-3.3,0-6-1.1-8.1-3.3c-2.1-2.1-3.1-5-3.1-8.5c0-3.6,1.2-6.5,3.4-8.8c2.3-2.3,5.2-3.5,8.7-3.5
				c2.5,0,4.6,0.4,6.3,1.2l0.5,0.3v5.1l-1.4-0.9c-1.6-1-3.5-1.5-5.7-1.5c-2.1,0-3.9,0.7-5.2,2.2c-1.4,1.5-2.1,3.4-2.1,5.8
				c0,2.5,0.6,4.4,1.9,5.8s2.9,2,5.1,2c1.3,0,2.4-0.2,3.4-0.6v-4.5h-4.7v-4.2h9.1v11.2l-0.5,0.3
				C319.5,270.3,316.9,270.9,314.1,270.9z"/>
			<path class="st0" d="M321.3,268.1c-2.2,1.2-4.5,1.8-7.2,1.8c-3.1,0-5.5-1-7.4-3s-2.8-4.6-2.8-7.8c0-3.3,1.1-6,3.2-8.2
				c2.1-2.1,4.8-3.2,8-3.2c2.3,0,4.3,0.4,5.9,1.1v2.8c-1.7-1.1-3.8-1.6-6.2-1.6c-2.4,0-4.4,0.8-5.9,2.5s-2.3,3.8-2.3,6.4
				c0,2.7,0.7,4.8,2.1,6.4s3.4,2.3,5.8,2.3c1.7,0,3.1-0.3,4.4-1v-6h-4.7v-2.3h7.2v9.8H321.3z"/>
			<path class="st0" d="M387.9,270.9c-0.4,0-0.8,0-1.4-0.1c-0.5-0.1-1.1-0.1-1.6-0.3c-0.6-0.1-1.1-0.3-1.6-0.4
				c-0.6-0.2-1-0.4-1.3-0.6l-0.4-0.3v-5.6l1.6,1.4c0.3,0.2,0.6,0.5,1,0.7s0.9,0.4,1.4,0.6c0.5,0.1,1,0.3,1.5,0.4s0.9,0.1,1.3,0.1
				c1.3,0,2.3-0.2,2.9-0.7c0.5-0.4,0.8-0.9,0.8-1.7c0-0.4-0.1-0.7-0.3-1c-0.2-0.3-0.5-0.6-0.8-0.9c-0.4-0.3-0.9-0.6-1.4-0.9
				c-0.6-0.3-1.3-0.7-2-1c-0.8-0.4-1.5-0.8-2.2-1.2c-0.7-0.4-1.3-0.9-1.9-1.4c-0.6-0.6-1-1.2-1.3-1.9c-0.3-0.7-0.5-1.5-0.5-2.5
				c0-1.1,0.3-2.2,0.8-3s1.2-1.5,2-2.1c0.8-0.5,1.7-0.9,2.7-1.2c1-0.2,2-0.4,3-0.4c2.3,0,3.9,0.3,5.1,0.9l0.5,0.3v5.2l-1.5-1
				c-1.1-0.8-2.6-1.1-4.3-1.1c-0.5,0-1,0.1-1.5,0.2c-0.4,0.1-0.8,0.2-1.2,0.4c-0.3,0.2-0.6,0.4-0.7,0.7c-0.2,0.3-0.2,0.6-0.2,1
				s0.1,0.7,0.2,1s0.4,0.5,0.7,0.8c0.3,0.3,0.8,0.6,1.3,0.9c0.6,0.3,1.2,0.6,2,1s1.6,0.8,2.3,1.2c0.7,0.5,1.4,1,2,1.5
				c0.6,0.6,1.1,1.2,1.4,1.9c0.4,0.7,0.6,1.6,0.6,2.5c0,1.2-0.2,2.3-0.7,3.1c-0.5,0.9-1.2,1.6-2,2.1s-1.7,0.9-2.7,1.1
				C390,270.8,388.9,270.9,387.9,270.9z"/>
			<path class="st0" d="M382.5,268.7v-3c0.3,0.3,0.7,0.6,1.2,0.8c0.5,0.2,1,0.4,1.5,0.6s1,0.3,1.6,0.4c0.5,0.1,1,0.1,1.5,0.1
				c1.5,0,2.7-0.3,3.5-0.9s1.1-1.4,1.1-2.5c0-0.6-0.1-1.1-0.4-1.5s-0.6-0.8-1.1-1.2c-0.4-0.4-1-0.7-1.6-1s-1.3-0.7-2-1
				c-0.7-0.4-1.4-0.8-2.1-1.2c-0.6-0.4-1.2-0.8-1.7-1.3s-0.9-1-1.1-1.6c-0.3-0.6-0.4-1.3-0.4-2.1c0-1,0.2-1.8,0.6-2.6
				c0.4-0.7,1-1.3,1.7-1.8s1.5-0.8,2.4-1s1.8-0.3,2.7-0.3c2.1,0,3.7,0.3,4.6,0.8v2.8c-1.3-0.9-2.9-1.3-4.9-1.3
				c-0.5,0-1.1,0.1-1.6,0.2c-0.5,0.1-1,0.3-1.5,0.6s-0.8,0.6-1,1s-0.4,0.9-0.4,1.5c0,0.5,0.1,1,0.3,1.4c0.2,0.4,0.5,0.8,0.9,1.1
				s0.9,0.6,1.5,1c0.6,0.3,1.2,0.6,2,1s1.5,0.8,2.2,1.2c0.7,0.4,1.3,0.9,1.8,1.4s0.9,1.1,1.2,1.7c0.3,0.6,0.5,1.3,0.5,2.1
				c0,1.1-0.2,2-0.6,2.7s-1,1.3-1.7,1.8s-1.5,0.8-2.4,1s-1.9,0.3-2.9,0.3c-0.3,0-0.8,0-1.3-0.1s-1-0.1-1.5-0.2s-1-0.2-1.5-0.4
				C383.1,269.1,382.8,268.9,382.5,268.7z"/>
			<polygon class="st0" points="423.2,270.5 423.2,247.2 436,247.2 436,251.4 427.6,251.4 427.6,256.6 435.4,256.6 435.4,260.8 
				427.6,260.8 427.6,266.4 436.5,266.4 436.5,270.5 			"/>
			<path class="st0" d="M435.5,269.6h-11.4v-21.5H435v2.3h-8.4v7.1h7.8v2.3h-7.8v7.5h8.9V269.6z"/>
			<path class="st0" d="M475.9,270.5L472,264c-0.3-0.5-0.6-1-0.9-1.3s-0.5-0.6-0.8-0.8c-0.2-0.2-0.5-0.3-0.7-0.4
				c-0.3-0.1-0.6-0.1-1-0.1h-1.1v9.1h-4.4v-23.3h7.3c1,0,2,0.1,2.9,0.4c0.9,0.3,1.7,0.7,2.4,1.2c0.7,0.6,1.2,1.3,1.6,2.1
				s0.6,1.8,0.6,2.9c0,0.9-0.1,1.7-0.4,2.4c-0.3,0.7-0.6,1.4-1.1,2s-1.1,1.1-1.7,1.5c-0.2,0.1-0.3,0.2-0.5,0.3
				c0.1,0.1,0.3,0.3,0.4,0.5c0.3,0.3,0.5,0.7,0.8,1c0.2,0.4,0.5,0.8,0.8,1.3l4.9,7.9h-5.2V270.5z M470,257.3c0.5,0,1-0.1,1.4-0.2
				s0.8-0.4,1.1-0.6c0.3-0.3,0.5-0.6,0.7-1s0.3-0.9,0.3-1.4c0-0.9-0.3-1.5-0.8-2c-0.6-0.5-1.4-0.7-2.6-0.7h-2.5v5.9H470z"/>
			<path class="st0" d="M479.4,269.6h-3l-3.6-6c-0.3-0.6-0.6-1-1-1.4c-0.3-0.4-0.6-0.7-0.9-1c-0.3-0.2-0.7-0.4-1-0.5
				c-0.4-0.1-0.8-0.2-1.3-0.2h-2.1v9.1H464v-21.5h6.4c0.9,0,1.8,0.1,2.6,0.4c0.8,0.2,1.5,0.6,2.1,1.1s1,1.1,1.4,1.8
				c0.3,0.7,0.5,1.5,0.5,2.5c0,0.7-0.1,1.4-0.3,2.1c-0.2,0.6-0.5,1.2-1,1.7c-0.4,0.5-0.9,0.9-1.5,1.3c-0.6,0.3-1.2,0.6-2,0.8v0.1
				c0.4,0.2,0.7,0.3,0.9,0.5c0.3,0.2,0.5,0.4,0.8,0.7c0.2,0.3,0.5,0.6,0.7,1s0.5,0.8,0.8,1.2L479.4,269.6z M466.6,250.4v7.8h3.4
				c0.6,0,1.2-0.1,1.7-0.3c0.5-0.2,1-0.5,1.4-0.8c0.4-0.4,0.7-0.8,0.9-1.3c0.2-0.5,0.3-1.1,0.3-1.7c0-1.1-0.4-2-1.1-2.7
				c-0.7-0.6-1.8-1-3.2-1L466.6,250.4L466.6,250.4z"/>
			<polygon class="st0" points="511.3,270.5 502.9,247.2 507.7,247.2 513.5,263.7 519.3,247.2 524.1,247.2 515.4,270.5 			"/>
			<path class="st0" d="M522.7,248.1l-7.9,21.5H512l-7.8-21.5h2.8l5.9,17c0.2,0.5,0.3,1.2,0.4,1.9h0.1c0.1-0.6,0.2-1.2,0.5-1.9
				l6.1-17H522.7z"/>
			<rect x="549.3" y="247.2" class="st0" width="4.4" height="23.3"/>
			<path class="st0" d="M552.7,269.6h-2.5v-21.5h2.5V269.6z"/>
			<path class="st0" d="M591.4,270.9c-3.3,0-6-1.1-8-3.2s-3-5-3-8.4c0-3.7,1.1-6.7,3.4-9c2.2-2.3,5.1-3.5,8.5-3.5c2.2,0,4,0.3,5.4,1
				l0.6,0.2v4.9l-1.4-0.8c-1.4-0.8-2.9-1.2-4.6-1.2c-2.2,0-3.9,0.7-5.3,2.2c-1.4,1.5-2,3.4-2,6c0,2.4,0.6,4.2,1.9,5.6
				c1.3,1.4,2.9,2,4.9,2s3.7-0.4,5.1-1.3l1.4-0.9v4.7l-0.5,0.3C596.1,270.4,593.9,270.9,591.4,270.9z"/>
			<path class="st0" d="M597.3,268.7c-1.6,0.8-3.6,1.3-5.9,1.3c-3.1,0-5.5-1-7.3-2.9s-2.8-4.5-2.8-7.7c0-3.4,1-6.2,3.1-8.3
				s4.7-3.2,7.9-3.2c2,0,3.7,0.3,5.1,0.9v2.7c-1.5-0.9-3.2-1.3-5.1-1.3c-2.5,0-4.5,0.8-6,2.5c-1.5,1.6-2.3,3.8-2.3,6.6
				c0,2.6,0.7,4.7,2.1,6.2c1.4,1.6,3.3,2.3,5.6,2.3c2.2,0,4-0.5,5.6-1.4L597.3,268.7L597.3,268.7z"/>
			<polygon class="st0" points="625.2,270.5 625.2,247.2 637.9,247.2 637.9,251.4 629.6,251.4 629.6,256.6 637.3,256.6 637.3,260.8 
				629.6,260.8 629.6,266.4 638.4,266.4 638.4,270.5 			"/>
			<path class="st0" d="M637.5,269.6h-11.4v-21.5H637v2.3h-8.4v7.1h7.8v2.3h-7.8v7.5h8.9V269.6z"/>
			<path class="st0" d="M670.4,270.9c-0.4,0-0.8,0-1.4-0.1c-0.5-0.1-1.1-0.1-1.6-0.3c-0.6-0.1-1.1-0.3-1.6-0.4
				c-0.6-0.2-1-0.4-1.3-0.6l-0.4-0.3v-5.5l1.6,1.4c0.3,0.2,0.6,0.5,1,0.7s0.9,0.4,1.4,0.6c0.5,0.1,1,0.3,1.5,0.4s0.9,0.1,1.3,0.1
				c1.3,0,2.3-0.2,2.9-0.7c0.5-0.4,0.8-0.9,0.8-1.7c0-0.4-0.1-0.7-0.2-1c-0.2-0.3-0.5-0.6-0.8-0.9c-0.4-0.3-0.9-0.6-1.4-0.9
				c-0.6-0.3-1.3-0.7-2-1c-0.8-0.4-1.5-0.8-2.2-1.2c-0.7-0.4-1.3-0.9-1.9-1.4c-0.6-0.6-1-1.2-1.3-1.9c-0.3-0.7-0.5-1.5-0.5-2.5
				c0-1.1,0.3-2.2,0.8-3s1.2-1.5,2-2.1c0.8-0.5,1.7-0.9,2.7-1.2c1-0.2,2-0.4,3-0.4c2.3,0,3.9,0.3,5.1,0.9l0.5,0.3v5.2l-1.5-1
				c-1.1-0.8-2.6-1.1-4.3-1.1c-0.5,0-1,0.1-1.5,0.2c-0.4,0.1-0.8,0.2-1.2,0.4c-0.3,0.2-0.6,0.4-0.7,0.7c-0.2,0.3-0.3,0.6-0.3,1
				s0.1,0.7,0.2,1c0.1,0.3,0.4,0.5,0.7,0.8s0.8,0.6,1.3,0.9c0.6,0.3,1.2,0.6,2,1s1.6,0.8,2.3,1.2c0.7,0.5,1.4,1,2,1.5
				c0.6,0.6,1.1,1.2,1.4,1.9c0.4,0.7,0.6,1.6,0.6,2.5c0,1.2-0.2,2.3-0.7,3.1c-0.5,0.9-1.2,1.6-2,2.1s-1.7,0.9-2.7,1.1
				C672.5,270.8,671.5,270.9,670.4,270.9z"/>
			<path class="st0" d="M665,268.7v-3c0.3,0.3,0.7,0.6,1.2,0.8c0.5,0.2,1,0.4,1.5,0.6s1,0.3,1.6,0.4c0.5,0.1,1,0.1,1.5,0.1
				c1.5,0,2.7-0.3,3.5-0.9s1.1-1.4,1.1-2.5c0-0.6-0.1-1.1-0.4-1.5c-0.3-0.4-0.6-0.8-1.1-1.2c-0.4-0.4-1-0.7-1.6-1s-1.3-0.7-2-1
				c-0.7-0.4-1.4-0.8-2.1-1.2s-1.2-0.8-1.7-1.3s-0.9-1-1.1-1.6c-0.3-0.6-0.4-1.3-0.4-2.1c0-1,0.2-1.8,0.6-2.6c0.4-0.7,1-1.3,1.7-1.8
				s1.5-0.8,2.4-1s1.8-0.3,2.7-0.3c2.1,0,3.7,0.3,4.6,0.8v2.8c-1.3-0.9-2.9-1.3-4.9-1.3c-0.5,0-1.1,0.1-1.6,0.2
				c-0.5,0.1-1,0.3-1.5,0.6s-0.8,0.6-1,1c-0.3,0.4-0.4,0.9-0.4,1.5c0,0.5,0.1,1,0.3,1.4s0.5,0.8,0.9,1.1s0.9,0.6,1.5,1
				c0.6,0.3,1.2,0.6,2,1s1.5,0.8,2.2,1.2c0.7,0.4,1.3,0.9,1.8,1.4s0.9,1.1,1.2,1.7s0.5,1.3,0.5,2.1c0,1.1-0.2,2-0.6,2.7
				c-0.4,0.7-1,1.3-1.7,1.8s-1.5,0.8-2.4,1s-1.9,0.3-2.9,0.3c-0.3,0-0.8,0-1.3-0.1s-1-0.1-1.5-0.2s-1-0.2-1.5-0.4
				C665.6,269.1,665.3,268.9,665,268.7z"/>
		</g>
	</g>
	<g>
		<g>
			
				<linearGradient id="SVGID_1_" gradientUnits="userSpaceOnUse" x1="161.2299" y1="280.8396" x2="161.2299" y2="25.0435" gradientTransform="matrix(1 0 0 -1 0 283.12)">
				<stop  offset="0" style="stop-color:#CFB44D"/>
				<stop  offset="0.1201" style="stop-color:#895E27"/>
				<stop  offset="0.2049" style="stop-color:#F8EF86"/>
				<stop  offset="0.2186" style="stop-color:#F6E87E"/>
				<stop  offset="0.2739" style="stop-color:#EECE61"/>
				<stop  offset="0.3055" style="stop-color:#EBC556"/>
				<stop  offset="0.4162" style="stop-color:#895E27"/>
				<stop  offset="0.4954" style="stop-color:#F8EF86"/>
				<stop  offset="0.5156" style="stop-color:#DAC668"/>
				<stop  offset="0.5414" style="stop-color:#B79747"/>
				<stop  offset="0.5613" style="stop-color:#A27A32"/>
				<stop  offset="0.5726" style="stop-color:#9A6F2A"/>
				<stop  offset="0.6463" style="stop-color:#F8EF86"/>
				<stop  offset="0.6562" style="stop-color:#F6E87E"/>
				<stop  offset="0.6961" style="stop-color:#EECE61"/>
				<stop  offset="0.7189" style="stop-color:#EBC556"/>
				<stop  offset="0.7961" style="stop-color:#895E27"/>
				<stop  offset="0.8753" style="stop-color:#EBC556"/>
				<stop  offset="0.9312" style="stop-color:#F8EF86"/>
				<stop  offset="0.9348" style="stop-color:#F4E980"/>
				<stop  offset="0.9644" style="stop-color:#DABA54"/>
				<stop  offset="0.987" style="stop-color:#C99D38"/>
				<stop  offset="1" style="stop-color:#C3922E"/>
			</linearGradient>
			<path class="st1" d="M291.1,134.1c-3.8,0-7.3,1-10.4,3s-6.5,5.2-10,9.5l2.8-12.7l-16.6,3c-4,9.6-8.8,18.2-14.3,25.9
				c-2.4,3.3-4.9,6.5-7.6,9.4c-0.4,0.4-0.8,0.9-1.2,1.3l0,0c-0.7,0.8-1.5,1.5-2.4,2.2c-2.4,1.8-5.2,2.4-8.3,2.2
				c-6.2-0.5-9.7-7.1-9.7-11.4c0.1-4.8,0.4-9.7,1.2-14.5c1.5-7.9,3.5-15.6,5.2-23.5c0.7-3.3,1.3-6.6,2-9.9c0.8-3.9,1.7-7.7,2.4-11.6
				c0.5-2.6,0.8-5.3,1.2-7.9c0.5-3.6,1.4-7.3,1.6-10.9c0.6-9,1.4-18.1-0.9-27c-1-4.1-2.2-8.1-3.8-12c-2.6-6.3-6.6-11.8-11.5-16.5
				c-4.2-4-8.6-7.6-13.8-10.2c-0.4-0.2-0.7-0.6-1-0.9c0.1-0.2,0.1-0.4,0.2-0.5c9.5-1.3,18.9,0.4,28.4,1.9c-0.4-0.7-0.9-1.4-1.5-1.6
				c-4.5-1.5-8.8-3.6-13.4-4.1c-6.4-0.7-12.9-0.3-19.3,0.2c-2.5,0.2-4.8,0.1-7-0.7c-6.7-2.1-13.4-3.8-20.4-4.5
				c-15.5-1.5-30.9-1.3-45.9,3.1c-6.1,1.8-11.9,4.4-17.8,6.8c-7.8,3.3-14.5,8.3-20.5,14.1c-2.6,2.6-5.2,2.9-8.3,1.6
				c-0.8-0.3-1.5-1-2.4-1.2c-1.3-0.3-2.9-0.8-4-0.4c-2.5,0.8-4.9,2-6.7,4.2c-2.3,2.9-4.7,5.7-7.1,8.5C42,58.5,35.1,69,29.4,80.2
				c-4.6,9-8.5,18.5-12.6,27.8c-1,2.3-1.5,4.8-2.1,7.3c-0.2,0.7,0.4,1.5,0.6,2.3c0.3,0.1,0.5,0.1,0.8,0.2c1-1.3,2.2-2.4,2.8-3.8
				c1.8-3.9,3.1-8.1,5-11.9c3.3-6.7,6.5-13.6,10.4-20c5-8,10.6-15.6,16-23.3c1.4-1.9,3-3.7,4.6-5.5c1,0.6,1.7,1,2.3,1.4
				c0.1,0.1,0.2,0.3,0.4,0.6c-0.3,0.4-0.5,0.9-0.9,1.3C49.8,65,44.2,74.2,39,83.6c-5.7,10.4-10.4,21.2-14.8,32.2
				c-0.8,2-0.9,4.3,0.2,6.6c1.2-0.9,2.4-1.8,3-3c1.2-2.6,2-5.4,3.1-8c3.8-8.6,8-17,12.9-25.1c5.3-8.7,11.2-17.1,17.5-25.1
				c0.5-0.6,0.8-1.5,1.1-2.2c1.2,1,1.6,1.3,2,1.6c0.4,0.4,0.8,0.8,1.5,1.3c-0.7,0.9-1.3,1.7-2,2.5C56.4,73.9,50,84,44.9,94.8
				c-4.2,8.7-7.9,17.6-11.6,26.5c-0.8,1.8-1.5,3.9-0.1,5.9c1.8-0.6,3-1.8,3.9-4.1c1.7-4.1,3.3-8.1,5-12.2c4-9.1,9-17.7,14.4-26.1
				c2.9-4.5,6.2-8.9,9.4-13.2c1.4-2,3.1-3.8,4.9-5.8c1,0.8,1.8,1.4,2.6,2c-2.4,3.4-4.7,6.6-6.9,9.9c-5.6,8.2-10.3,16.8-14.6,25.7
				c-2.4,5-4.7,10-6.8,15.1c-1.4,3.3-2.4,6.8-3.4,10.3c-0.4,1.2-0.5,2.5,1,3.2c2.4-1.4,3.1-3.7,4.1-5.9c3.2-7.2,6.3-14.5,9.8-21.5
				c2.6-5.2,5.7-10.1,8.9-14.9c4-5.9,8.2-11.7,12.5-17.4c2.1-2.8,4.6-5.3,6.8-8c3-3.7,3.2-7.5,0.7-11.8c-1.6-2.7-1.5-5.1,0.2-7.3
				c5-6.3,10.7-11.9,17.5-16.2c10.5-6.7,22-10.8,34.6-11.4c8.5-0.4,16.8,0.9,24.7,4c1.1,0.4,2,1.2,3.4,2.1
				c-8.3,3.7-15.6,8.1-22.2,13.7c-5.1,4.3-9.4,9.2-12.7,14.9c-2.4,4-4.5,8.1-6.4,12.3c-2,4.3-3.7,8.6-5.2,13.1
				c-1.9,5.5-3.5,11.2-5.1,16.8c-1.5,5.2-2.9,10.5-4.3,15.8c-1.1,4.1-1.9,8.2-3,12.2c-1.7,6.3-3.4,12.6-5.3,18.9
				c-1.8,6-3.5,12-5.8,17.8c-2.7,7-5.6,13.9-9.8,20.2c-4.2,6.4-9.3,11.6-17.1,13.2c-2.7,0.6-5.6,0.4-8.6,0.5c0-1.2-0.1-1.8,0-2.4
				c0.3-1.9,0.7-3.9,1-5.8c0.4-3.9-0.6-7.6-1.9-11.2c-1.5-4.3-4.1-7.7-8.3-9.8c-3.7-1.8-7.2-1.4-10.4,1c-3.1,2.3-4.3,5.6-3.7,9.5
				c0.3,1.9,0.7,3.9,1.3,5.8c2.8,8.5,8.9,13.8,17.3,16.1c8.9,2.5,17.4,0.3,25.3-3.8c9-4.6,16-11.5,20.6-20.4
				c3.5-6.7,6.4-13.8,9.1-20.9c2.5-6.3,4.5-12.8,6.6-19.3c2.2-7,4.3-14,6.4-21c0.7-2.3,1.5-4.6,2.3-7h58.6c-0.4,2.2-0.9,4.1-1.2,6
				c-1.4,7-2.8,14.1-4.1,21.2c-0.9,4.8-1.8,9.7-2.4,14.5c-0.6,4.3-0.7,8.6-1.1,13c-0.6,6.3-0.3,12.5,1.8,18.6
				c4.2,12,14.5,18.4,25.8,19.3c4.5,0.4,9-0.2,13.4-1.6c4.7-1.5,9.1-3.4,12.9-6.6c4.1-3.4,7.4-7.3,9.6-11.9
				c2.4-2.7,5.5-6.7,9.5-11.8c-5.4,23.5-9.8,46.8-13.3,69.8L254,231c1-9.4,3.3-21.8,6.8-37.4c2.3,2,4.2,3.2,5.6,3.8
				c1.4,0.5,3.4,0.8,5.8,0.8c8.8,0,16.9-4.5,24.4-13.6s11.2-19,11.2-29.8c0-6.2-1.6-11.2-4.7-15C300.1,136,296.1,134.1,291.1,134.1z
				 M189.8,64.3c-0.3,6.4-0.6,12.9-1.3,19.3c-0.4,4-1.5,8-2.3,12.2h-58.1c0.1-0.6,0.1-1.3,0.3-1.8c1.1-3.7,2.2-7.5,3.3-11.2
				c1.6-5.5,3.2-11,5-16.4c1.7-5.2,3.6-10.4,5.8-15.4c3.1-7,8.3-12.4,14.7-16.4c4.5-2.8,9.2-5.3,13.8-7.8c5.9,3.8,9.7,8.5,12.8,13.8
				C188.1,47.8,190.3,55.8,189.8,64.3z M210.9,75.3c-0.1,4.9-0.6,9.8-1.1,14.7c-0.7,5.4-1.6,10.8-2.5,16.2c-0.9,5.3-1.9,10.7-2.9,16
				c-0.6,3.2-1.5,6.4-2.2,9.7c-2.2,11.1-5.5,22-5.2,33.5c0.3,8.3,4,14.5,11.2,18.5c0.6,0.4,1.2,0.8,1.8,1.2
				c-0.1,0.2-0.2,0.4-0.3,0.7c-4-0.1-7.8-0.8-11.1-3.4c-5.5-4.3-7.5-10.2-7.5-17c0-7.8,1-15.5,2.8-23.1c0.9-3.8,1.4-7.6,2.2-11.4
				c1.1-5.2,2.3-10.3,3.4-15.5c1.1-5.4,2.1-10.7,3-16.1c0.8-5.2,1.8-10.4,2.1-15.7c0.5-7.5,1-15.1,0.4-22.6
				c-0.7-8.6-3.7-16.6-8.6-23.8c-0.3-0.5-0.5-1-0.5-1.8c0.5,0.3,1.2,0.5,1.6,1c2.5,2.9,5.2,5.8,7.4,8.9c3,4.4,5,9.4,5.7,14.6
				C211.1,64.9,211,70.1,210.9,75.3z M283.8,181c-3.8,7.5-8.2,11.3-13.2,11.3c-3.1,0-5.9-2.1-8.5-6.3l4.5-19.1
				c1.4-5.7,2.6-9.7,3.7-12s2.7-4.3,4.8-6c2.1-1.7,4.1-2.6,6-2.6c2.4,0,4.4,1.2,6,3.5c1.5,2.3,2.3,5.4,2.3,9.2
				C289.5,166.1,287.6,173.5,283.8,181z"/>
			
				<linearGradient id="SVGID_00000151522026498109290000000003695925164307461011_" gradientUnits="userSpaceOnUse" x1="382.6" y1="280.8396" x2="382.6" y2="25.0435" gradientTransform="matrix(1 0 0 -1 0 283.12)">
				<stop  offset="0" style="stop-color:#CFB44D"/>
				<stop  offset="0.1201" style="stop-color:#895E27"/>
				<stop  offset="0.2049" style="stop-color:#F8EF86"/>
				<stop  offset="0.2186" style="stop-color:#F6E87E"/>
				<stop  offset="0.2739" style="stop-color:#EECE61"/>
				<stop  offset="0.3055" style="stop-color:#EBC556"/>
				<stop  offset="0.4162" style="stop-color:#895E27"/>
				<stop  offset="0.4954" style="stop-color:#F8EF86"/>
				<stop  offset="0.5156" style="stop-color:#DAC668"/>
				<stop  offset="0.5414" style="stop-color:#B79747"/>
				<stop  offset="0.5613" style="stop-color:#A27A32"/>
				<stop  offset="0.5726" style="stop-color:#9A6F2A"/>
				<stop  offset="0.6463" style="stop-color:#F8EF86"/>
				<stop  offset="0.6562" style="stop-color:#F6E87E"/>
				<stop  offset="0.6961" style="stop-color:#EECE61"/>
				<stop  offset="0.7189" style="stop-color:#EBC556"/>
				<stop  offset="0.7961" style="stop-color:#895E27"/>
				<stop  offset="0.8753" style="stop-color:#EBC556"/>
				<stop  offset="0.9312" style="stop-color:#F8EF86"/>
				<stop  offset="0.9348" style="stop-color:#F4E980"/>
				<stop  offset="0.9644" style="stop-color:#DABA54"/>
				<stop  offset="0.987" style="stop-color:#C99D38"/>
				<stop  offset="1" style="stop-color:#C3922E"/>
			</linearGradient>
			<path style="fill:url(#SVGID_00000151522026498109290000000003695925164307461011_);" d="M426.9,190.2c-2.3,0-4.1-0.9-5.5-2.6
				c-1.4-1.7-2.1-4-2.1-6.8c0-5.2,1.4-12.9,4.3-23.1c2.8-10.1,6.2-15.2,10-15.2c1.5,0,2.8,0.8,3.7,2.5c1,1.7,1.5,3.4,1.5,5.2
				s0.4,2.7,1.1,2.7c1.1,0,3-1.3,5.7-3.9c2.7-2.6,4.1-4.3,4.1-5c0-2.1-1-4.2-2.9-6.5s-4.7-3.4-8.5-3.4s-7,1.2-9.7,3.5
				s-5.2,5.9-7.7,10.9c-1.6-9.6-6.5-14.4-14.7-14.4c-5,0-9.9,2.2-14.8,6.7s-10.4,11.6-16.5,21.5c-2.5,4-4.8,7.2-7,9.6v-0.1
				c-5.9,6-10.4,9.9-13.3,11.6c-2.9,1.7-6,2.6-9.3,2.6c-8.3,0-13.4-4.8-15.4-14.4c21.6-6.3,32.4-14.6,32.4-24.7
				c0-3.8-1.4-6.9-4.1-9.3c-2.7-2.4-6.4-3.5-11-3.5c-8.8,0-16.8,4.2-24,12.6c-7.2,8.4-10.8,17.8-10.8,28.2c0,7,2,12.6,6.1,16.9
				c4.1,4.3,9.5,6.4,16.2,6.4c6,0,11.5-1.5,16.4-4.4c5-2.9,10.5-7.4,16.8-13.6h0.1c4.3-3.9,8.6-9.4,12.8-16.6
				c7.9-13.5,14.3-20.2,19.1-20.2c3.8,0,5.7,2.6,5.7,7.9c0,1.7-0.7,6.2-2.1,13.5s-3.4,13.4-5.9,18.4c-2.5,4.9-5.4,7.4-8.6,7.4
				c-3,0-5.3-2.2-6.9-6.6c-0.7-2.1-1.5-3.2-2.3-3.2c-0.5,0-2.2,1.2-5.1,3.6c-2.8,2.4-4.3,4.1-4.3,5.1c0,2.1,1.4,4.1,4.2,6
				c2.8,1.9,5.9,2.8,9.3,2.8c8.3,0,15-5,19.9-14.9c2.7,10,8.4,14.9,17,14.9c9.1,0,19.8-6,32-18.1v-8.5
				C442.1,184.1,433.5,190.2,426.9,190.2z M333.8,147.4c2.9-4.9,6-7.4,9.3-7.4c3.4,0,5.2,2.4,5.2,7.1c0,9.5-6.3,16-18.8,19.6
				C329.4,158.8,330.9,152.3,333.8,147.4z"/>
		</g>
	</g>
	<g>
		
			<linearGradient id="SVGID_00000022557097968631766760000003083811625802622387_" gradientUnits="userSpaceOnUse" x1="478.35" y1="244.6281" x2="478.35" y2="37.1955" gradientTransform="matrix(1 0 0 -1 0 283.12)">
			<stop  offset="0" style="stop-color:#CFB44D"/>
			<stop  offset="0.1201" style="stop-color:#895E27"/>
			<stop  offset="0.2049" style="stop-color:#F8EF86"/>
			<stop  offset="0.2186" style="stop-color:#F6E87E"/>
			<stop  offset="0.2739" style="stop-color:#EECE61"/>
			<stop  offset="0.3055" style="stop-color:#EBC556"/>
			<stop  offset="0.4162" style="stop-color:#895E27"/>
			<stop  offset="0.4954" style="stop-color:#F8EF86"/>
			<stop  offset="0.5156" style="stop-color:#DAC668"/>
			<stop  offset="0.5414" style="stop-color:#B79747"/>
			<stop  offset="0.5613" style="stop-color:#A27A32"/>
			<stop  offset="0.5726" style="stop-color:#9A6F2A"/>
			<stop  offset="0.6463" style="stop-color:#F8EF86"/>
			<stop  offset="0.6562" style="stop-color:#F6E87E"/>
			<stop  offset="0.6961" style="stop-color:#EECE61"/>
			<stop  offset="0.7189" style="stop-color:#EBC556"/>
			<stop  offset="0.7961" style="stop-color:#895E27"/>
			<stop  offset="0.8753" style="stop-color:#EBC556"/>
			<stop  offset="0.9312" style="stop-color:#F8EF86"/>
			<stop  offset="0.9348" style="stop-color:#F4E980"/>
			<stop  offset="0.9644" style="stop-color:#DABA54"/>
			<stop  offset="0.987" style="stop-color:#C99D38"/>
			<stop  offset="1" style="stop-color:#C3922E"/>
		</linearGradient>
		<path style="fill:url(#SVGID_00000022557097968631766760000003083811625802622387_);" d="M671.8,224.4h-387
			c-3.9,0-7.1-1.2-7.1-2.6c0-1.4,3.2-2.6,7.1-2.6h387.1c3.9,0,7.1,1.2,7.1,2.6C678.9,223.2,675.8,224.4,671.8,224.4z"/>
	</g>
	<g>
		
			<linearGradient id="SVGID_00000137830202453544319980000006146535670664214975_" gradientUnits="userSpaceOnUse" x1="114.35" y1="244.6281" x2="114.35" y2="37.1955" gradientTransform="matrix(1 0 0 -1 0 283.12)">
			<stop  offset="0" style="stop-color:#CFB44D"/>
			<stop  offset="0.1201" style="stop-color:#895E27"/>
			<stop  offset="0.2049" style="stop-color:#F8EF86"/>
			<stop  offset="0.2186" style="stop-color:#F6E87E"/>
			<stop  offset="0.2739" style="stop-color:#EECE61"/>
			<stop  offset="0.3055" style="stop-color:#EBC556"/>
			<stop  offset="0.4162" style="stop-color:#895E27"/>
			<stop  offset="0.4954" style="stop-color:#F8EF86"/>
			<stop  offset="0.5156" style="stop-color:#DAC668"/>
			<stop  offset="0.5414" style="stop-color:#B79747"/>
			<stop  offset="0.5613" style="stop-color:#A27A32"/>
			<stop  offset="0.5726" style="stop-color:#9A6F2A"/>
			<stop  offset="0.6463" style="stop-color:#F8EF86"/>
			<stop  offset="0.6562" style="stop-color:#F6E87E"/>
			<stop  offset="0.6961" style="stop-color:#EECE61"/>
			<stop  offset="0.7189" style="stop-color:#EBC556"/>
			<stop  offset="0.7961" style="stop-color:#895E27"/>
			<stop  offset="0.8753" style="stop-color:#EBC556"/>
			<stop  offset="0.9312" style="stop-color:#F8EF86"/>
			<stop  offset="0.9348" style="stop-color:#F4E980"/>
			<stop  offset="0.9644" style="stop-color:#DABA54"/>
			<stop  offset="0.987" style="stop-color:#C99D38"/>
			<stop  offset="1" style="stop-color:#C3922E"/>
		</linearGradient>
		<path style="fill:url(#SVGID_00000137830202453544319980000006146535670664214975_);" d="M212.8,224.4H15.9c-2.2,0-4-1.2-4-2.6
			c0-1.4,1.8-2.6,4-2.6h196.9c2.2,0,4,1.2,4,2.6C216.8,223.2,215,224.4,212.8,224.4z"/>
	</g>
	<g>
		
			<linearGradient id="SVGID_00000176733540866887949660000009986942223047168664_" gradientUnits="userSpaceOnUse" x1="509.65" y1="280.8396" x2="509.65" y2="25.0435" gradientTransform="matrix(1 0 0 -1 0 283.12)">
			<stop  offset="0" style="stop-color:#CFB44D"/>
			<stop  offset="0.1201" style="stop-color:#895E27"/>
			<stop  offset="0.2049" style="stop-color:#F8EF86"/>
			<stop  offset="0.2186" style="stop-color:#F6E87E"/>
			<stop  offset="0.2739" style="stop-color:#EECE61"/>
			<stop  offset="0.3055" style="stop-color:#EBC556"/>
			<stop  offset="0.4162" style="stop-color:#895E27"/>
			<stop  offset="0.4954" style="stop-color:#F8EF86"/>
			<stop  offset="0.5156" style="stop-color:#DAC668"/>
			<stop  offset="0.5414" style="stop-color:#B79747"/>
			<stop  offset="0.5613" style="stop-color:#A27A32"/>
			<stop  offset="0.5726" style="stop-color:#9A6F2A"/>
			<stop  offset="0.6463" style="stop-color:#F8EF86"/>
			<stop  offset="0.6562" style="stop-color:#F6E87E"/>
			<stop  offset="0.6961" style="stop-color:#EECE61"/>
			<stop  offset="0.7189" style="stop-color:#EBC556"/>
			<stop  offset="0.7961" style="stop-color:#895E27"/>
			<stop  offset="0.8753" style="stop-color:#EBC556"/>
			<stop  offset="0.9312" style="stop-color:#F8EF86"/>
			<stop  offset="0.9348" style="stop-color:#F4E980"/>
			<stop  offset="0.9644" style="stop-color:#DABA54"/>
			<stop  offset="0.987" style="stop-color:#C99D38"/>
			<stop  offset="1" style="stop-color:#C3922E"/>
		</linearGradient>
		<path style="fill:url(#SVGID_00000176733540866887949660000009986942223047168664_);" d="M540.2,122.2c0,1.5-2.6,5.4-7.7,11.4
			h-1.1c-0.8-0.3-1.3-1.5-1.5-3.5c-0.4-4.1-1.8-7.4-4.2-10s-5.2-3.9-8.6-3.9c-3.1,0-5.8,1.1-8.1,3.4c-2.3,2.3-3.4,5-3.4,8.2
			c0,2.3,0.7,4.8,2.2,7.4c1.4,2.6,5.2,6.8,11.2,12.5s9.9,10.3,11.6,13.7c1.7,3.4,2.6,6.6,2.6,9.7c0,7.1-3.1,13.3-9.2,18.6
			c-6.1,5.4-13.3,8.1-21.5,8.1c-6.8,0-12.4-1.6-16.8-4.7c-4.4-3.2-6.6-5.7-6.6-7.7c0-1.1,1.2-3.7,3.6-7.7s3.8-6.1,4.2-6.1
			c1.3,0,2.2,0.4,2.7,1.1c0.5,0.7,0.9,2.1,1.1,4.1c0.6,6.2,2.1,10.4,4.5,12.8c2.4,2.3,5.5,3.5,9.4,3.5c4.2,0,7.9-1.5,11-4.4
			s4.7-6.3,4.7-10.1c0-2-0.6-4.1-1.8-6.3s-4.6-6-10.3-11.4c-5.6-5.4-9.3-9.9-11.1-13.7c-1.7-3.7-2.6-7.4-2.6-10.9
			c0-6.1,2.3-11.8,7-17c4.6-5.2,10.8-7.7,18.5-7.7c5.8,0,10.7,1.3,14.5,4C538.3,118.2,540.2,120.4,540.2,122.2z"/>
		
			<linearGradient id="SVGID_00000071544834142613155400000008153727494422534319_" gradientUnits="userSpaceOnUse" x1="582.8501" y1="280.8396" x2="582.8501" y2="25.0435" gradientTransform="matrix(1 0 0 -1 0 283.12)">
			<stop  offset="0" style="stop-color:#CFB44D"/>
			<stop  offset="0.1201" style="stop-color:#895E27"/>
			<stop  offset="0.2049" style="stop-color:#F8EF86"/>
			<stop  offset="0.2186" style="stop-color:#F6E87E"/>
			<stop  offset="0.2739" style="stop-color:#EECE61"/>
			<stop  offset="0.3055" style="stop-color:#EBC556"/>
			<stop  offset="0.4162" style="stop-color:#895E27"/>
			<stop  offset="0.4954" style="stop-color:#F8EF86"/>
			<stop  offset="0.5156" style="stop-color:#DAC668"/>
			<stop  offset="0.5414" style="stop-color:#B79747"/>
			<stop  offset="0.5613" style="stop-color:#A27A32"/>
			<stop  offset="0.5726" style="stop-color:#9A6F2A"/>
			<stop  offset="0.6463" style="stop-color:#F8EF86"/>
			<stop  offset="0.6562" style="stop-color:#F6E87E"/>
			<stop  offset="0.6961" style="stop-color:#EECE61"/>
			<stop  offset="0.7189" style="stop-color:#EBC556"/>
			<stop  offset="0.7961" style="stop-color:#895E27"/>
			<stop  offset="0.8753" style="stop-color:#EBC556"/>
			<stop  offset="0.9312" style="stop-color:#F8EF86"/>
			<stop  offset="0.9348" style="stop-color:#F4E980"/>
			<stop  offset="0.9644" style="stop-color:#DABA54"/>
			<stop  offset="0.987" style="stop-color:#C99D38"/>
			<stop  offset="1" style="stop-color:#C3922E"/>
		</linearGradient>
		<path style="fill:url(#SVGID_00000071544834142613155400000008153727494422534319_);" d="M615.7,111.5c1.3,0,2.6,1.9,3.9,5.8
			c1.3,3.9,2,7.9,2,12.1c0,9.2-2.1,19.5-6.2,30.7c-4.1,11.2-9.4,20.3-15.8,27.2c-6.4,6.9-13.1,10.3-20,10.3c-5.6,0-10.1-2-13.7-5.9
			c-3.5-4-5.3-9.1-5.3-15.5c0-6,2.2-14.7,6.5-26.2c4-10.9,5.9-18.7,5.9-23.4c0-3.1-0.6-5.5-1.8-7.2s-2.8-2.6-4.9-2.6
			c-3.3,0-6.3,1.8-9.2,5.4s-4.3,7.5-4.3,11.7c0,3.4,0.9,5.9,2.6,7.5c1.7,1.6,2.6,2.9,2.6,3.7c0,1.4-0.9,3.1-2.6,5
			c-1.7,1.9-3.3,2.8-4.6,2.8c-1.7,0-3.2-1.1-4.6-3.4c-1.4-2.3-2.1-4.8-2.1-7.6c0-7.2,2.6-14.1,7.8-20.7s11.2-9.9,18.2-9.9
			c5.3,0,9.6,2,12.8,6s4.8,9.3,4.8,16c0,3.1-0.4,6.6-1.2,10.5s-2.7,10-5.8,18.3s-4.6,14.6-4.6,18.9c0,2.8,0.8,5.1,2.5,7
			c1.6,1.8,3.7,2.8,6.2,2.8c3.8,0,7.8-2.3,12-6.8s7.6-10.4,10.3-17.7c2.7-7.2,4.1-14.2,4.1-21c0-6.4-1.9-13.3-5.8-20.7
			c-1.2-2.2-1.8-3.8-1.8-4.6c0-1.5,1.7-3.3,5.2-5.4C612.2,112.6,614.5,111.5,615.7,111.5z"/>
		
			<linearGradient id="SVGID_00000124843442078606769700000003592924489747516801_" gradientUnits="userSpaceOnUse" x1="654.45" y1="280.8396" x2="654.45" y2="25.0435" gradientTransform="matrix(1 0 0 -1 0 283.12)">
			<stop  offset="0" style="stop-color:#CFB44D"/>
			<stop  offset="0.1201" style="stop-color:#895E27"/>
			<stop  offset="0.2049" style="stop-color:#F8EF86"/>
			<stop  offset="0.2186" style="stop-color:#F6E87E"/>
			<stop  offset="0.2739" style="stop-color:#EECE61"/>
			<stop  offset="0.3055" style="stop-color:#EBC556"/>
			<stop  offset="0.4162" style="stop-color:#895E27"/>
			<stop  offset="0.4954" style="stop-color:#F8EF86"/>
			<stop  offset="0.5156" style="stop-color:#DAC668"/>
			<stop  offset="0.5414" style="stop-color:#B79747"/>
			<stop  offset="0.5613" style="stop-color:#A27A32"/>
			<stop  offset="0.5726" style="stop-color:#9A6F2A"/>
			<stop  offset="0.6463" style="stop-color:#F8EF86"/>
			<stop  offset="0.6562" style="stop-color:#F6E87E"/>
			<stop  offset="0.6961" style="stop-color:#EECE61"/>
			<stop  offset="0.7189" style="stop-color:#EBC556"/>
			<stop  offset="0.7961" style="stop-color:#895E27"/>
			<stop  offset="0.8753" style="stop-color:#EBC556"/>
			<stop  offset="0.9312" style="stop-color:#F8EF86"/>
			<stop  offset="0.9348" style="stop-color:#F4E980"/>
			<stop  offset="0.9644" style="stop-color:#DABA54"/>
			<stop  offset="0.987" style="stop-color:#C99D38"/>
			<stop  offset="1" style="stop-color:#C3922E"/>
		</linearGradient>
		<path style="fill:url(#SVGID_00000124843442078606769700000003592924489747516801_);" d="M687.7,183.2c-9.4,9.7-20.7,14.6-34,14.6
			c-9.5,0-17.3-3-23.4-9s-9.1-13.6-9.1-23c0-9.3,2.2-18.2,6.6-26.6c4.4-8.4,10.2-15.1,17.3-20.2c7.1-5,14.1-7.6,21-7.6
			c5.7,0,10.4,1.7,14.1,5.2c3.6,3.4,5.4,7.9,5.4,13.4c0,7.2-2.2,13.4-6.6,18.6c-4.4,5.3-9.5,7.9-15.4,7.9c-3.1,0-5.6-0.8-7.6-2.4
			c-2-1.6-3-3.6-3-6.1c0-2.1,0.9-4.1,2.6-5.9c1.3,2.3,3,3.5,5.2,3.5c3.2,0,6.1-2,8.8-5.9c2.7-4,4.1-8.3,4.1-13
			c0-3.3-0.8-5.9-2.3-7.9c-1.5-1.9-3.6-2.9-6.1-2.9c-3.7,0-7.6,2.3-11.8,6.9s-7.7,10.5-10.5,17.7s-4.2,14.1-4.2,20.6
			c0,8.3,2.3,15.1,7,20.4c4.7,5.3,10.7,8,17.9,8c4.6,0,8.7-1.1,12.4-3.2c3.7-2.1,7.5-5.5,11.5-10L687.7,183.2L687.7,183.2z"/>
	</g>
</g>
</svg>
